<svg width="32" height="32" viewBox="0 0 32 32" fill="none" xmlns="http://www.w3.org/2000/svg">
<path d="M20.5797 21.285L21.2847 20.58L19.5547 18.85C21.2995 16.9209 22.2213 14.3863 22.1236 11.787C22.0259 9.18773 20.9163 6.72953 19.0317 4.93683C17.147 3.14413 14.6364 2.15887 12.0355 2.19122C9.43456 2.22357 6.94925 3.27098 5.10974 5.11C-1.17037 11.3575 3.4023 22.1852 12.1599 22.1249C14.6318 22.13 17.017 21.2138 18.8497 19.555L20.5797 21.285ZM4.98474 10.54C8.71317 6.5056 15.6034 6.50661 19.3347 10.5401C19.7579 10.9732 19.9947 11.5546 19.9947 12.1601C19.9947 12.7655 19.7579 13.347 19.3347 13.78C18.4044 14.7432 17.2896 15.5091 16.0569 16.0323C14.8242 16.5554 13.4988 16.825 12.1597 16.825C10.8206 16.825 9.49523 16.5554 8.26254 16.0323C7.02985 15.5091 5.9151 14.7432 4.98474 13.78C4.56163 13.3469 4.32476 12.7655 4.32476 12.16C4.32476 11.5545 4.56163 10.9731 4.98474 10.54Z" fill="#5F6368"/>
<path d="M29.5196 25.905L24.1546 20.54C23.9668 20.3527 23.7123 20.2475 23.4471 20.2475C23.1818 20.2475 22.9274 20.3527 22.7396 20.54L20.5396 22.74C20.3523 22.9278 20.2471 23.1823 20.2471 23.4475C20.2471 23.7128 20.3523 23.9672 20.5396 24.155L25.9046 29.52C26.3636 29.9783 26.9859 30.2355 27.6346 30.235C29.7706 30.2421 31.1424 27.4789 29.5196 25.905Z" fill="#5F6368"/>
<path d="M18.6149 13.085C18.8576 12.8383 18.9937 12.5061 18.9937 12.16C18.9937 11.8139 18.8576 11.4817 18.6149 11.235C17.778 10.3684 16.7751 9.67911 15.6661 9.20836C14.5571 8.73762 13.3647 8.49501 12.1599 8.49501C10.9551 8.49501 9.76268 8.73762 8.65367 9.20836C7.54467 9.67911 6.54181 10.3684 5.7049 11.235C5.46219 11.4817 5.32617 11.8139 5.32617 12.16C5.32617 12.5061 5.46219 12.8383 5.7049 13.085C9.05404 16.7155 15.2631 16.7157 18.6149 13.085ZM9.1549 12.16C9.29873 8.1834 15.0217 8.18443 15.1649 12.16C15.0211 16.1366 9.29811 16.1355 9.1549 12.16Z" fill="#5F6368"/>
<path d="M14.1643 12.16C14.1594 11.6314 13.946 11.1262 13.5705 10.7541C13.1951 10.3821 12.6879 10.1734 12.1593 10.1734C11.6307 10.1734 11.1235 10.3821 10.748 10.7542C10.3725 11.1262 10.1592 11.6315 10.1543 12.16C10.1592 12.6886 10.3726 13.1939 10.748 13.5659C11.1235 13.9379 11.6307 14.1467 12.1593 14.1466C12.6879 14.1466 13.1951 13.9379 13.5706 13.5659C13.9461 13.1938 14.1594 12.6886 14.1643 12.16Z" fill="#5F6368"/>
</svg>
