<svg width="32" height="32" viewBox="0 0 32 32" fill="none" xmlns="http://www.w3.org/2000/svg">
<path fill-rule="evenodd" clip-rule="evenodd" d="M17.8951 1.82132L19.8005 3.24757C20.3216 3.63763 20.8701 3.83725 21.52 3.87344L23.8963 4.00563C25.3193 4.08475 26.475 5.05444 26.8 6.44207L27.3428 8.75938C27.4913 9.39313 27.7832 9.89863 28.2578 10.3441L29.9932 11.9729C31.0323 12.9481 31.2943 14.4338 30.6514 15.7057L29.5777 17.8298C29.2841 18.4107 29.1827 18.9855 29.26 19.6318L29.5425 21.9951C29.7116 23.4101 28.9573 24.7166 27.6473 25.2776L25.4594 26.2146C24.861 26.4709 24.4139 26.8461 24.0577 27.3908L22.755 29.3827C21.975 30.5754 20.5573 31.0913 19.1932 30.6791L16.915 29.9906C16.2919 29.8023 15.7082 29.8023 15.0851 29.9906L12.8068 30.6791C11.4427 31.0913 10.0251 30.5754 9.24509 29.3827L7.9424 27.3908C7.58609 26.8461 7.13896 26.4709 6.54065 26.2146L4.35265 25.2775C3.04265 24.7164 2.28834 23.41 2.45746 21.9949L2.73996 19.6317C2.81721 18.9854 2.71584 18.4106 2.42221 17.8296L1.34852 15.7056C0.705648 14.4338 0.967586 12.9481 2.00671 11.9728L3.74215 10.3439C4.21677 9.89851 4.50859 9.393 4.65702 8.75925L5.1999 6.44194C5.5249 5.05438 6.68059 4.08469 8.10352 4.0055L10.4798 3.87332C11.1298 3.83719 11.6783 3.6375 12.1994 3.24744L14.1048 1.82119C15.2456 0.967317 16.7542 0.967317 17.8951 1.82132ZM14.7845 16.8163L12.7167 14.7485C12.1808 14.2126 11.3115 14.2126 10.7756 14.7485C10.2396 15.2844 10.2396 16.1537 10.7756 16.6896L13.8169 19.7309C14.3528 20.2668 15.2222 20.2668 15.758 19.7309C17.5912 17.8977 19.4035 16.0439 21.2282 14.2024C21.7603 13.6654 21.7586 12.7989 21.2223 12.2656C20.6859 11.7321 19.8169 11.7336 19.2843 12.2716L14.7845 16.8163ZM15.9999 5.77838C13.1773 5.77838 10.6219 6.9225 8.77215 8.77225C6.9224 10.6221 5.77827 13.1774 5.77827 16C5.77827 18.8226 6.9224 21.378 8.77215 23.2278C10.6219 25.0775 13.1773 26.2216 15.9999 26.2216C18.8225 26.2216 21.3779 25.0775 23.2277 23.2278C25.0774 21.378 26.2215 18.8226 26.2215 16C26.2215 13.1774 25.0774 10.622 23.2277 8.77225C21.3779 6.9225 18.8225 5.77838 15.9999 5.77838ZM22.5206 9.47932C20.8518 7.81057 18.5464 6.77838 15.9999 6.77838C13.4534 6.77838 11.148 7.81057 9.47921 9.47932C7.81046 11.1481 6.77827 13.4535 6.77827 16C6.77827 18.5465 7.81046 20.8519 9.47921 22.5207C11.148 24.1894 13.4534 25.2216 15.9999 25.2216C18.5464 25.2216 20.8518 24.1894 22.5206 22.5208C24.1893 20.852 25.2215 18.5466 25.2215 16.0001C25.2215 13.4535 24.1893 11.1481 22.5206 9.47932Z" fill="#5F6368"/>
</svg>
