<?xml version="1.0" standalone="no"?>
<!DOCTYPE svg PUBLIC "-//W3C//DTD SVG 20010904//EN"
 "http://www.w3.org/TR/2001/REC-SVG-20010904/DTD/svg10.dtd">
<svg version="1.0" xmlns="http://www.w3.org/2000/svg"
 width="300.000000pt" height="300.000000pt" viewBox="0 0 300.000000 300.000000"
 preserveAspectRatio="xMidYMid meet">
<metadata>
Created by potrace 1.14, written by Peter Selinger 2001-2017
</metadata>
<g transform="translate(0.000000,300.000000) scale(0.100000,-0.100000)"
fill="#000000" stroke="none">
<path d="M449 2983 c0 -10 -1 -305 -2 -655 l-2 -638 58 0 57 0 0 153 1 152 42
32 c23 18 56 45 72 60 17 15 56 48 85 73 30 25 57 47 60 50 3 3 48 41 100 85
52 44 100 84 106 90 6 5 65 55 132 110 66 55 123 105 125 111 8 16 -115 11
-139 -6 -12 -8 -45 -36 -75 -61 -30 -26 -155 -131 -279 -233 l-225 -187 -3
441 -2 440 -55 0 c-45 0 -55 -3 -56 -17z"/>
<path d="M1670 2125 l0 -355 23 -1 c137 -3 670 0 674 4 4 4 7 602 3 695 0 9
-77 12 -350 12 l-350 0 0 -355z"/>
<path d="M865 2114 c-11 -9 -29 -22 -40 -30 -14 -10 -16 -17 -9 -22 11 -6 116
-104 329 -305 l70 -66 75 -1 75 0 -60 57 c-33 31 -125 118 -205 193 -230 218
-204 198 -235 174z"/>
<path d="M450 700 l0 -700 50 0 50 0 1 448 c1 246 2 458 4 472 17 134 52 210
132 280 60 52 106 76 181 94 267 62 509 -141 497 -418 -8 -195 -118 -338 -295
-386 -95 -26 -214 -14 -301 31 l-41 20 -5 -20 c-3 -12 -9 -21 -13 -21 -4 0
-10 -9 -13 -20 -6 -24 16 -41 95 -72 77 -31 259 -31 341 0 198 72 318 233 334
444 19 262 -141 479 -397 537 -42 9 -196 8 -230 -2 -112 -32 -201 -94 -259
-181 l-26 -40 -3 117 -3 117 -49 0 -50 0 0 -700z"/>
<path d="M1901 1324 c-205 -55 -335 -242 -318 -460 13 -171 111 -306 269 -372
54 -23 77 -27 168 -27 91 0 114 4 168 27 116 48 193 125 239 240 30 72 40 191
24 258 -7 25 -13 53 -16 63 -9 37 -59 117 -101 159 -107 109 -280 153 -433
112z"/>
</g>
</svg>
