<svg width="32" height="32" viewBox="0 0 32 32" fill="none" xmlns="http://www.w3.org/2000/svg">
<path d="M11.2486 9.45455H14.3239V18.9006C14.3239 19.9612 14.0705 20.8892 13.5639 21.6847C13.062 22.4801 12.3589 23.1004 11.4545 23.5455C10.5502 23.9858 9.49669 24.206 8.29403 24.206C7.08665 24.206 6.03078 23.9858 5.12642 23.5455C4.22206 23.1004 3.51894 22.4801 3.01705 21.6847C2.51515 20.8892 2.2642 19.9612 2.2642 18.9006V9.45455H5.33949V18.6378C5.33949 19.1918 5.46023 19.6842 5.7017 20.1151C5.94792 20.5459 6.29356 20.8845 6.73864 21.1307C7.18371 21.3769 7.70218 21.5 8.29403 21.5C8.89063 21.5 9.40909 21.3769 9.84943 21.1307C10.2945 20.8845 10.6378 20.5459 10.8793 20.1151C11.1255 19.6842 11.2486 19.1918 11.2486 18.6378V9.45455ZM19.3612 24H16.0657L21.087 9.45455H25.0501L30.0643 24H26.7688L23.1254 12.7784H23.0117L19.3612 24ZM19.1552 18.2827H26.9393V20.6832H19.1552V18.2827Z" fill="#5F6368"/>
</svg>
